<svg width="57" height="57" viewBox="0 0 57 57" fill="none" xmlns="http://www.w3.org/2000/svg">
<path d="M54.15 34.2V37.05C54.15 42.4935 51.1005 47.2245 46.5975 49.6185L48.45 57H42.75L41.325 51.3H15.675L14.25 57H8.55L10.4025 49.6185C8.12079 48.4071 6.21215 46.597 4.88154 44.3827C3.55093 42.1683 2.84861 39.6334 2.85 37.05V34.2H0V28.5H51.3V8.55C51.3 7.79413 50.9997 7.06922 50.4653 6.53475C49.9308 6.00027 49.2059 5.7 48.45 5.7C47.025 5.7 45.942 6.669 45.6 7.9515C47.3955 9.4905 48.45 11.7705 48.45 14.25H31.35C31.35 11.9824 32.2508 9.80767 33.8542 8.20424C35.4577 6.6008 37.6324 5.7 39.9 5.7H40.3845C41.553 2.394 44.7165 0 48.45 0C50.7176 0 52.8923 0.900801 54.4958 2.50424C56.0992 4.10767 57 6.2824 57 8.55V34.2H54.15ZM48.45 34.2H8.55V37.05C8.55 39.3176 9.4508 41.4923 11.0542 43.0958C12.6577 44.6992 14.8324 45.6 17.1 45.6H39.9C42.1676 45.6 44.3423 44.6992 45.9458 43.0958C47.5492 41.4923 48.45 39.3176 48.45 37.05V34.2Z" fill="#333333"/>
</svg>
