<svg width="35" height="51" viewBox="0 0 35 51" fill="none" xmlns="http://www.w3.org/2000/svg">
<path d="M33.251 17.5862H15.7611C15.2973 17.5862 14.8524 17.7715 14.5244 18.1013C14.1964 18.4311 14.0121 18.8784 14.0121 19.3448V26.3793C14.0164 28.8706 14.8964 31.2801 16.4967 33.182C18.097 35.084 20.3144 36.3558 22.7571 36.7727V47.4827H17.5101V51H31.502V47.4827H26.255V36.7727C28.6977 36.3558 30.9152 35.084 32.5154 33.182C34.1157 31.2801 34.9957 28.8706 35 26.3793V19.3448C35 18.8784 34.8157 18.4311 34.4877 18.1013C34.1597 17.7715 33.7149 17.5862 33.251 17.5862ZM31.502 26.3793C31.502 28.2449 30.7649 30.0342 29.4529 31.3534C28.1409 32.6726 26.3615 33.4138 24.5061 33.4138C22.6506 33.4138 20.8712 32.6726 19.5592 31.3534C18.2472 30.0342 17.5101 28.2449 17.5101 26.3793V21.1034H31.502V26.3793Z" fill="#E29F42"/>
<path d="M15.7611 0H7.0162C6.55234 0 6.10748 0.185283 5.77948 0.515088C5.45148 0.844893 5.26721 1.29221 5.26721 1.75862V14.7197C3.56768 15.7208 2.17753 17.1762 1.25125 18.9241C0.324974 20.672 -0.101145 22.6439 0.0202528 24.6207V49.2414C0.0202528 49.7078 0.204521 50.1551 0.532519 50.4849C0.860518 50.8147 1.30538 51 1.76924 51H10.5142V47.4828H3.51823V24.6207C3.51823 19.016 7.42021 17.551 7.56888 17.4965L8.76518 17.0938V3.51724H14.0121V12.3103H17.5101V1.75862C17.5101 1.29221 17.3258 0.844893 16.9978 0.515088C16.6698 0.185283 16.225 0 15.7611 0Z" fill="#E29F42"/>
</svg>
