<svg width="49" height="60" viewBox="0 0 49 60" fill="none" xmlns="http://www.w3.org/2000/svg">
<path d="M24.4 58C24.4 58 46.8 41.2 46.8 23C46.8 11.4024 36.7718 2 24.4 2C12.0282 2 2 11.4024 2 23C2 41.2 24.4 58 24.4 58Z" stroke="#333333" stroke-width="4" stroke-linejoin="round"/>
<path d="M20.2 16V38.4" stroke="#333333" stroke-width="4" stroke-linecap="round" stroke-linejoin="round"/>
<path d="M20.2 16H28.6C30.0852 16 31.5096 16.59 32.5598 17.6402C33.61 18.6904 34.2 20.1148 34.2 21.6C34.2 23.0852 33.61 24.5096 32.5598 25.5598C31.5096 26.61 30.0852 27.2 28.6 27.2H20.2V16Z" stroke="#333333" stroke-width="4" stroke-linejoin="round"/>
</svg>
