<svg width="44" height="65" viewBox="0 0 44 65" fill="none" xmlns="http://www.w3.org/2000/svg">
<path d="M24.3824 13.9286L24.9298 18.5714H38.79L37.6401 27.8571H21.3548L20.2851 18.5714H20.2979L19.7504 13.9286L19.744 13.8721L18.4445 2.59217L18.1458 0H0V4.64286H14.0503L15.12 13.9286H1.99443L7.81561 60.933C7.95611 62.0552 8.49699 63.0872 9.33698 63.8358C10.177 64.5844 11.2585 64.9983 12.379 65H33.6155C34.7361 64.9984 35.8177 64.5846 36.6578 63.836C37.4979 63.0873 38.0389 62.0553 38.1794 60.933L44 13.9286H24.3824ZM7.20445 18.5714H15.6548L16.7244 27.8571H8.35431L7.20445 18.5714ZM33.6175 60.3571H12.3788L8.92924 32.5H17.2593L19.2648 49.9107H23.8951L21.8895 32.5H37.0658L33.6175 60.3571Z" fill="#333333"/>
</svg>
