<svg width="47" height="44" viewBox="0 0 47 44" fill="none" xmlns="http://www.w3.org/2000/svg">
<path d="M18.1567 17.4824H18.2399L23.2488 21.805L28.2589 17.4812M28.2589 17.4812H28.3421M28.2589 17.4812H33.1857V36.3932H35.8614V17.4824H40.7894V36.3896H43.3556V38.0043H45.25V42.25H1.25V38.0043H3.14319V36.3896H5.70827V17.4824L10.6351 17.4812V36.392H13.3096V17.4812H18.2388V36.392H28.2577L28.2589 17.4812ZM18.2399 24.8687L23.2488 29.1227L28.2589 24.8699M3.32276 12.1126H43.1761V17.4812H3.32276V12.1126ZM40.655 12.1126V9.61855L23.3237 1.25L5.99368 9.62092V12.1138L40.655 12.1126Z" stroke="#E29F42" stroke-width="2.5" stroke-linecap="round" stroke-linejoin="round"/>
</svg>
