<svg width="59" height="42" viewBox="0 0 59 42" fill="none" xmlns="http://www.w3.org/2000/svg">
<path d="M24.2835 36.75C24.2835 39.6375 26.6049 42 29.5001 42C32.3953 42 34.7167 39.6375 34.7167 36.75C34.7167 33.8626 32.3692 31.5001 29.5001 31.5001C26.631 31.5001 24.2835 33.8626 24.2835 36.75ZM44.2631 27.2738C40.3246 23.3101 35.0819 21.1313 29.5001 21.1313C23.9183 21.1313 18.6756 23.3101 14.7371 27.2738L18.4148 30.9751C21.3622 28.0088 25.3007 26.3551 29.474 26.3551C33.6473 26.3551 37.5859 27.9826 40.5333 30.9751L44.211 27.2738H44.2631Z" fill="#333333"/>
<path d="M51.6447 19.8713C45.7239 13.9126 37.8728 10.6313 29.5002 10.6313C21.1275 10.6313 13.2765 13.9126 7.35559 19.8713L11.0594 23.5726C15.9891 18.6113 22.536 15.8813 29.5002 15.8813C36.4643 15.8813 43.0112 18.6113 47.9409 23.5726L51.6447 19.8713Z" fill="#333333"/>
<path d="M0 12.3112L3.67772 16.0125C10.5637 9.08247 19.7449 5.24998 29.5 5.24998C39.2551 5.24998 48.4103 9.08247 55.3223 16.0125L59 12.3112C51.1229 4.38374 40.6375 0 29.5 0C18.3625 0 7.8771 4.35749 0 12.3112Z" fill="#333333"/>
</svg>
