<svg width="92" height="49" viewBox="0 0 92 49" fill="none" xmlns="http://www.w3.org/2000/svg">
<path d="M88.5 45.5V32.9M88.5 32.9H3.5M88.5 32.9H46V11.9H75.75C79.1315 11.9 82.3745 13.2275 84.7656 15.5905C87.1567 17.9534 88.5 21.1583 88.5 24.5V32.9ZM3.5 7.7V45.5M16.25 11.9C16.25 14.1278 17.1455 16.2644 18.7396 17.8397C20.3337 19.415 22.4957 20.3 24.75 20.3C27.0043 20.3 29.1663 19.415 30.7604 17.8397C32.3545 16.2644 33.25 14.1278 33.25 11.9C33.25 9.67218 32.3545 7.53561 30.7604 5.9603C29.1663 4.385 27.0043 3.5 24.75 3.5C22.4957 3.5 20.3337 4.385 18.7396 5.9603C17.1455 7.53561 16.25 9.67218 16.25 11.9Z" stroke="#333333" stroke-width="7" stroke-linecap="round" stroke-linejoin="round"/>
</svg>
