<svg width="57" height="39" viewBox="0 0 57 39" fill="none" xmlns="http://www.w3.org/2000/svg">
<path d="M3.94998 32.6235V37.4502M52.55 32.6235V37.4502M6.64998 4.87002C6.64998 3.90993 7.07668 2.98917 7.8362 2.31028C8.59572 1.63139 9.62586 1.25 10.7 1.25H45.8C46.8741 1.25 47.9042 1.63139 48.6638 2.31028C49.4233 2.98917 49.85 3.90993 49.85 4.87002V18.1434H6.64998V4.87002Z" stroke="#E29F42" stroke-width="2.5" stroke-linecap="round" stroke-linejoin="round"/>
<path d="M22.85 12.1101H14.75C13.6759 12.1101 12.6457 12.4915 11.8862 13.1704C11.1267 13.8493 10.7 14.77 10.7 15.7301V18.1435H26.9V15.7301C26.9 14.77 26.4733 13.8493 25.7138 13.1704C24.9543 12.4915 23.9241 12.1101 22.85 12.1101ZM41.75 12.1101H33.65C32.5759 12.1101 31.5457 12.4915 30.7862 13.1704C30.0267 13.8493 29.6 14.77 29.6 15.7301V18.1435H45.8V15.7301C45.8 14.77 45.3733 13.8493 44.6138 13.1704C43.8543 12.4915 42.8241 12.1101 41.75 12.1101ZM1.25 21.7635C1.25 20.8034 1.6767 19.8826 2.43622 19.2038C3.19574 18.5249 4.22587 18.1435 5.3 18.1435H51.2C52.2741 18.1435 53.3043 18.5249 54.0638 19.2038C54.8233 19.8826 55.25 20.8034 55.25 21.7635V32.6236H1.25V21.7635Z" stroke="#E29F42" stroke-width="2.5" stroke-linecap="round" stroke-linejoin="round"/>
</svg>
