<svg width="62" height="62" viewBox="0 0 62 62" fill="none" xmlns="http://www.w3.org/2000/svg">
<path d="M31.0012 0C13.878 0 0.00472363 13.877 0 30.9988C0.00472363 48.1159 13.878 61.9906 31.0012 62C48.1243 61.9906 61.9976 48.1136 62 30.9988C62 13.877 48.122 0.00236163 31.0012 0ZM31.0012 54.908C17.7986 54.882 7.11142 44.2004 7.08781 30.9988C7.09655 24.6595 9.61872 18.5824 14.1014 14.0996C18.5841 9.61685 24.6614 7.09428 31.0012 7.0849C37.3401 7.0949 43.4165 9.61743 47.8986 14.0996C52.3807 18.5818 54.9028 24.658 54.9122 30.9965C54.8886 44.198 44.2061 54.8844 31.0012 54.9033V54.908ZM14.7637 30.9988C14.7637 30.3725 14.5149 29.7718 14.0719 29.3289C13.629 28.886 13.0283 28.6372 12.4019 28.6372C11.7755 28.6372 11.1748 28.886 10.7318 29.3289C10.2889 29.7718 10.0401 30.3725 10.0401 30.9988C10.0401 31.6252 10.2889 32.2259 10.7318 32.6687C11.1748 33.1116 11.7755 33.3605 12.4019 33.3605C13.0283 33.3605 13.629 33.1116 14.0719 32.6687C14.5149 32.2259 14.7637 31.6252 14.7637 30.9988ZM13.7103 38.2538C13.3056 38.4875 12.9794 38.836 12.7728 39.2552C12.5663 39.6743 12.4888 40.1454 12.5501 40.6087C12.6114 41.0719 12.8088 41.5066 13.1172 41.8576C13.4257 42.2087 13.8314 42.4603 14.283 42.5807C14.7345 42.7011 15.2116 42.6849 15.654 42.534C16.0963 42.3832 16.4839 42.1045 16.7677 41.7333C17.0516 41.362 17.2189 40.915 17.2486 40.4486C17.2782 39.9822 17.1688 39.5176 16.9342 39.1134C16.6188 38.5727 16.1024 38.1786 15.4976 38.0171C14.8927 37.8556 14.2486 37.9398 13.7056 38.2514L13.7103 38.2538ZM16.0721 19.6535C15.8031 19.4867 15.5033 19.3757 15.1904 19.327C14.8776 19.2784 14.5582 19.2931 14.2512 19.3704C13.9442 19.4476 13.6558 19.5858 13.4033 19.7767C13.1508 19.9676 12.9392 20.2073 12.7811 20.4815C12.6231 20.7558 12.5218 21.0591 12.4832 21.3733C12.4447 21.6875 12.4698 22.0062 12.5569 22.3106C12.644 22.6149 12.7914 22.8986 12.9904 23.1448C13.1894 23.3911 13.4358 23.5948 13.7151 23.7439C14.2556 24.0273 14.8848 24.0906 15.4709 23.9203C16.057 23.7501 16.5545 23.3595 16.859 22.8306C17.1634 22.3017 17.2513 21.6755 17.1042 21.0832C16.9571 20.4909 16.5887 19.9785 16.0721 19.6535ZM48.292 23.7439C48.5749 23.5969 48.8252 23.3941 49.0276 23.1477C49.23 22.9014 49.3805 22.6167 49.4699 22.3106C49.5593 22.0046 49.5858 21.6837 49.5479 21.3671C49.5099 21.0506 49.4082 20.745 49.249 20.4688C49.0897 20.1926 48.8762 19.9515 48.6212 19.76C48.3663 19.5685 48.0752 19.4307 47.7655 19.3547C47.4559 19.2788 47.134 19.2663 46.8194 19.318C46.5048 19.3698 46.2039 19.4847 45.9349 19.6559C45.4215 19.9825 45.054 20.4948 44.9091 21.0857C44.7641 21.6767 44.8528 22.3008 45.1568 22.8279C45.4607 23.3551 45.9564 23.7446 46.5405 23.9152C47.1246 24.0859 47.7521 24.0245 48.292 23.7439ZM22.8789 45.0624C22.3387 44.7822 21.7113 44.7212 21.1272 44.8919C20.5431 45.0626 20.0473 45.4519 19.7431 45.9789C19.4388 46.5059 19.3495 47.1298 19.4936 47.721C19.6378 48.3122 20.0044 48.825 20.5171 49.1527C21.0593 49.4609 21.7013 49.5422 22.3032 49.3788C22.9051 49.2154 23.418 48.8206 23.7298 48.2805C24.0416 47.7405 24.1272 47.099 23.9678 46.4961C23.8084 45.8931 23.4169 45.3778 22.8789 45.0624ZM22.8789 16.9353C23.4213 16.6221 23.8172 16.1063 23.9793 15.5013C24.1414 14.8963 24.0565 14.2517 23.7433 13.7093C23.5103 13.3049 23.1625 12.9788 22.744 12.7721C22.3256 12.5654 21.8552 12.4875 21.3924 12.5482C20.9296 12.6088 20.4953 12.8054 20.1442 13.1129C19.7932 13.4205 19.5412 13.8252 19.4203 14.276C19.2993 14.7267 19.3148 15.2032 19.4647 15.6452C19.6146 16.0872 19.8922 16.4748 20.2625 16.7589C20.6327 17.0431 21.0789 17.2111 21.5446 17.2416C22.0104 17.2722 22.4747 17.1639 22.8789 16.9306V16.9353ZM48.292 38.2538C47.7494 37.9423 47.1056 37.8581 46.5012 38.0196C45.8967 38.1811 45.3807 38.5752 45.0658 39.1158C44.7757 39.6567 44.7074 40.2892 44.8753 40.8795C45.0432 41.4699 45.4341 41.9718 45.9654 42.2791C46.4967 42.5865 47.1268 42.6752 47.7223 42.5264C48.3178 42.3777 48.8321 42.0032 49.1564 41.4821C49.4694 40.9391 49.5544 40.2942 49.3928 39.6887C49.2313 39.0832 48.8363 38.5663 48.2944 38.2514L48.292 38.2538ZM41.4876 12.8426C40.9469 12.5597 40.3177 12.4969 39.7317 12.6672C39.1457 12.8376 38.6483 13.228 38.3435 13.7566C38.0387 14.2853 37.9502 14.9113 38.0965 15.5038C38.2427 16.0962 38.6124 16.6091 39.1282 16.9353C39.3971 17.095 39.6952 17.1996 40.0049 17.2432C40.3147 17.2868 40.63 17.2684 40.9326 17.1891C41.2351 17.1098 41.519 16.9712 41.7676 16.7814C42.0161 16.5915 42.2245 16.3542 42.3806 16.0832C42.5367 15.8121 42.6374 15.5128 42.6769 15.2025C42.7163 14.8922 42.6938 14.5772 42.6105 14.2757C42.5272 13.9742 42.3848 13.6923 42.1917 13.4463C41.9985 13.2002 41.7584 12.995 41.4853 12.8426H41.4876ZM49.6123 28.6372C48.9859 28.6372 48.3852 28.886 47.9422 29.3289C47.4993 29.7718 47.2505 30.3725 47.2505 30.9988C47.2505 31.6252 47.4993 32.2259 47.9422 32.6687C48.3852 33.1116 48.9859 33.3605 49.6123 33.3605C50.2387 33.3605 50.8394 33.1116 51.2823 32.6687C51.7253 32.2259 51.9741 31.6252 51.9741 30.9988C51.9741 30.3725 51.7253 29.7718 51.2823 29.3289C50.8394 28.886 50.2387 28.6372 49.6123 28.6372ZM31.0012 10.0369C29.7022 10.0369 28.6394 11.095 28.6394 12.3986L27.5411 29.7401L20.4462 34.3689C19.9038 34.6824 19.5081 35.1985 19.3462 35.8037C19.1843 36.4089 19.2695 37.0536 19.583 37.596C19.8965 38.1385 20.4127 38.5341 21.0179 38.696C21.6232 38.8579 22.2679 38.7727 22.8104 38.4592L30.6186 34.4988C30.7461 34.5153 30.8736 34.5389 31.0083 34.5389C32.9686 34.5389 34.551 32.9566 34.551 30.9965L33.3701 12.3962C33.3701 11.7699 33.1212 11.1692 32.6783 10.7263C32.2354 10.2834 31.6347 10.0346 31.0083 10.0346L31.0012 10.0369ZM31.0012 47.2398C29.7022 47.2398 28.6394 48.2954 28.6394 49.6014C28.6394 50.9074 29.7022 51.9631 31.0012 51.9631C32.3002 51.9631 33.363 50.9074 33.363 49.6014C33.363 48.2954 32.3073 47.2398 31.0012 47.2398ZM39.1258 45.0624C38.7206 45.2951 38.3935 45.6429 38.1859 46.0616C37.9784 46.4803 37.8998 46.9512 37.96 47.4146C38.0203 47.8781 38.2167 48.3132 38.5243 48.665C38.832 49.0168 39.2372 49.2693 39.6885 49.3908C40.1398 49.5122 40.617 49.497 41.0597 49.3471C41.5023 49.1972 41.8906 48.9193 42.1753 48.5487C42.4599 48.1781 42.6282 47.7313 42.6589 47.265C42.6895 46.7987 42.5811 46.3338 42.3473 45.9291C42.1925 45.6603 41.9861 45.4247 41.7402 45.2357C41.4942 45.0466 41.2134 44.9079 40.9138 44.8274C40.6142 44.7469 40.3017 44.7263 39.9941 44.7666C39.6865 44.8069 39.3898 44.9074 39.1211 45.0624H39.1258Z" fill="#333333"/>
</svg>
